<svg xmlns="http://www.w3.org/2000/svg" viewBox="0 0 1600 900" preserveAspectRatio="xMidYMax meet"><path fill="#14291D" d="M-30.0 311.0 L-39.1 339.2 L-20.9 339.2 Z M-30.0 329.9 L-47.9 363.4 L-12.1 363.4 Z M-30.0 348.9 L-53.7 387.7 L-6.3 387.7 Z M-32.5 374.2 h5 V392.0 h-5 Z M5.4 261.8 L-3.8 305.1 L14.6 305.1 Z M5.4 292.5 L-11.6 344.4 L22.4 344.4 Z M5.4 323.3 L-19.6 383.7 L30.3 383.7 Z M2.9 364.4 h5 V392.0 h-5 Z M43.3 290.1 L35.6 324.7 L51.0 324.7 Z M43.3 314.1 L30.2 355.4 L56.5 355.4 Z M43.3 338.0 L26.1 386.0 L60.6 386.0 Z M40.8 370.0 h5 V392.0 h-5 Z M65.7 260.5 L59.9 304.2 L71.5 304.2 Z M65.7 291.6 L53.0 343.9 L78.4 343.9 Z M65.7 322.6 L48.2 383.6 L83.1 383.6 Z M63.2 364.1 h5 V392.0 h-5 Z M87.3 290.1 L78.1 324.8 L96.4 324.8 Z M87.3 314.1 L71.6 355.4 L103.0 355.4 Z M87.3 338.1 L62.1 386.0 L112.5 386.0 Z M84.8 370.0 h5 V392.0 h-5 Z M118.8 262.4 L110.1 305.5 L127.5 305.5 Z M118.8 293.0 L103.5 344.7 L134.0 344.7 Z M118.8 323.6 L95.8 383.8 L141.7 383.8 Z M116.3 364.5 h5 V392.0 h-5 Z M152.4 259.8 L146.1 303.8 L158.7 303.8 Z M152.4 291.1 L140.0 343.7 L164.7 343.7 Z M152.4 322.3 L134.0 383.6 L170.8 383.6 Z M149.9 364.0 h5 V392.0 h-5 Z M187.3 301.5 L177.0 332.7 L197.6 332.7 Z M187.3 322.8 L169.9 359.8 L204.6 359.8 Z M187.3 344.0 L162.7 386.9 L211.9 386.9 Z M184.8 372.3 h5 V392.0 h-5 Z M232.0 282.0 L224.3 319.2 L239.8 319.2 Z M232.0 308.0 L216.6 352.3 L247.5 352.3 Z M232.0 333.9 L207.2 385.4 L256.8 385.4 Z M229.5 368.4 h5 V392.0 h-5 Z M278.2 294.2 L270.4 327.6 L285.9 327.6 Z M278.2 317.2 L261.2 357.0 L295.2 357.0 Z M278.2 340.2 L253.9 386.3 L302.5 386.3 Z M275.7 370.8 h5 V392.0 h-5 Z M308.8 307.5 L299.6 336.8 L317.9 336.8 Z M308.8 327.3 L290.2 362.1 L327.3 362.1 Z M308.8 347.1 L280.2 387.4 L337.3 387.4 Z M306.3 373.5 h5 V392.0 h-5 Z M344.0 297.3 L333.3 329.7 L354.6 329.7 Z M344.0 319.5 L322.8 358.2 L365.2 358.2 Z M344.0 341.8 L316.4 386.6 L371.5 386.6 Z M341.5 371.5 h5 V392.0 h-5 Z M383.8 258.6 L376.2 302.9 L391.5 302.9 Z M383.8 290.1 L370.7 343.2 L397.0 343.2 Z M383.8 321.7 L363.0 383.5 L404.7 383.5 Z M381.3 363.7 h5 V392.0 h-5 Z M415.0 306.2 L403.5 335.9 L426.5 335.9 Z M415.0 326.3 L396.4 361.6 L433.5 361.6 Z M415.0 346.4 L386.6 387.3 L443.4 387.3 Z M412.5 373.2 h5 V392.0 h-5 Z M461.0 298.5 L452.4 330.6 L469.6 330.6 Z M461.0 320.5 L445.0 358.6 L477.1 358.6 Z M461.0 342.4 L437.3 386.7 L484.7 386.7 Z M458.5 371.7 h5 V392.0 h-5 Z M490.7 317.2 L484.8 343.5 L496.6 343.5 Z M490.7 334.7 L477.8 365.9 L503.5 365.9 Z M490.7 352.1 L472.2 388.2 L509.2 388.2 Z M488.2 375.4 h5 V392.0 h-5 Z M512.2 267.3 L504.1 308.9 L520.3 308.9 Z M512.2 296.8 L498.5 346.6 L525.8 346.6 Z M512.2 326.2 L493.1 384.2 L531.3 384.2 Z M509.7 365.5 h5 V392.0 h-5 Z M536.6 293.3 L530.2 327.0 L542.9 327.0 Z M536.6 316.5 L524.6 356.6 L548.5 356.6 Z M536.6 339.7 L519.1 386.3 L554.1 386.3 Z M534.1 370.7 h5 V392.0 h-5 Z M563.0 329.8 L553.2 352.3 L572.8 352.3 Z M563.0 344.2 L544.9 370.7 L581.1 370.7 Z M563.0 358.7 L539.4 389.2 L586.6 389.2 Z M560.5 378.0 h5 V392.0 h-5 Z M597.3 305.6 L588.3 335.5 L606.2 335.5 Z M597.3 325.9 L581.0 361.4 L613.5 361.4 Z M597.3 346.1 L574.2 387.2 L620.3 387.2 Z M594.8 373.1 h5 V392.0 h-5 Z M640.0 298.2 L631.3 330.3 L648.8 330.3 Z M640.0 320.2 L623.6 358.5 L656.5 358.5 Z M640.0 342.3 L615.3 386.7 L664.8 386.7 Z M637.5 371.6 h5 V392.0 h-5 Z M671.5 311.4 L664.6 339.5 L678.4 339.5 Z M671.5 330.3 L660.4 363.6 L682.5 363.6 Z M671.5 349.1 L655.1 387.7 L687.9 387.7 Z M669.0 374.3 h5 V392.0 h-5 Z M700.1 256.6 L689.6 301.5 L710.6 301.5 Z M700.1 288.6 L679.5 342.4 L720.7 342.4 Z M700.1 320.6 L668.3 383.3 L731.8 383.3 Z M697.6 363.3 h5 V392.0 h-5 Z M735.4 291.0 L728.1 325.4 L742.7 325.4 Z M735.4 314.8 L723.9 355.7 L746.9 355.7 Z M735.4 338.5 L716.4 386.1 L754.4 386.1 Z M732.9 370.2 h5 V392.0 h-5 Z M763.5 323.5 L754.2 347.9 L772.7 347.9 Z M763.5 339.5 L746.5 368.3 L780.4 368.3 Z M763.5 355.4 L736.8 388.7 L790.1 388.7 Z M761.0 376.7 h5 V392.0 h-5 Z M809.6 269.8 L802.1 310.7 L817.1 310.7 Z M809.6 298.6 L794.9 347.5 L824.4 347.5 Z M809.6 327.5 L790.2 384.4 L829.1 384.4 Z M807.1 366.0 h5 V392.0 h-5 Z M842.5 255.3 L836.4 300.6 L848.6 300.6 Z M842.5 287.6 L830.9 341.9 L854.0 341.9 Z M842.5 320.0 L825.5 383.2 L859.5 383.2 Z M840.0 363.1 h5 V392.0 h-5 Z M872.2 258.5 L865.6 302.8 L878.8 302.8 Z M872.2 290.0 L861.3 343.1 L883.1 343.1 Z M872.2 321.6 L855.2 383.5 L889.2 383.5 Z M869.7 363.7 h5 V392.0 h-5 Z M899.7 251.6 L891.4 298.0 L908.0 298.0 Z M899.7 284.8 L885.7 340.5 L913.7 340.5 Z M899.7 318.0 L881.2 382.9 L918.2 382.9 Z M897.2 362.3 h5 V392.0 h-5 Z M941.8 307.4 L934.7 336.7 L949.0 336.7 Z M941.8 327.2 L927.6 362.0 L956.1 362.0 Z M941.8 347.0 L922.3 387.4 L961.4 387.4 Z M939.3 373.5 h5 V392.0 h-5 Z M980.3 313.6 L973.4 341.0 L987.2 341.0 Z M980.3 331.9 L969.1 364.5 L991.5 364.5 Z M980.3 350.3 L963.8 387.9 L996.8 387.9 Z M977.8 374.7 h5 V392.0 h-5 Z M1012.1 280.9 L1002.8 318.4 L1021.4 318.4 Z M1012.1 307.1 L995.7 351.8 L1028.5 351.8 Z M1012.1 333.3 L988.2 385.3 L1036.0 385.3 Z M1009.6 368.2 h5 V392.0 h-5 Z M1057.1 315.5 L1050.6 342.4 L1063.6 342.4 Z M1057.1 333.4 L1044.1 365.2 L1070.1 365.2 Z M1057.1 351.3 L1041.2 388.0 L1072.9 388.0 Z M1054.6 375.1 h5 V392.0 h-5 Z M1090.0 298.7 L1082.3 330.7 L1097.8 330.7 Z M1090.0 320.6 L1076.3 358.7 L1103.8 358.7 Z M1090.0 342.5 L1068.1 386.7 L1112.0 386.7 Z M1087.5 371.7 h5 V392.0 h-5 Z M1120.3 278.4 L1112.9 316.7 L1127.8 316.7 Z M1120.3 305.2 L1107.9 350.9 L1132.8 350.9 Z M1120.3 332.0 L1101.9 385.1 L1138.7 385.1 Z M1117.8 367.7 h5 V392.0 h-5 Z M1145.1 286.6 L1136.6 322.3 L1153.7 322.3 Z M1145.1 311.4 L1129.3 354.0 L1161.0 354.0 Z M1145.1 336.2 L1123.0 385.7 L1167.3 385.7 Z M1142.6 369.3 h5 V392.0 h-5 Z M1176.7 318.9 L1169.0 344.7 L1184.4 344.7 Z M1176.7 336.0 L1163.2 366.5 L1190.2 366.5 Z M1176.7 353.1 L1157.9 388.3 L1195.5 388.3 Z M1174.2 375.8 h5 V392.0 h-5 Z M1212.1 296.4 L1202.5 329.1 L1221.7 329.1 Z M1212.1 318.8 L1195.6 357.8 L1228.6 357.8 Z M1212.1 341.3 L1188.3 386.5 L1235.9 386.5 Z M1209.6 371.3 h5 V392.0 h-5 Z M1244.1 314.2 L1236.7 341.4 L1251.5 341.4 Z M1244.1 332.4 L1229.5 364.7 L1258.6 364.7 Z M1244.1 350.6 L1225.4 387.9 L1262.8 387.9 Z M1241.6 374.8 h5 V392.0 h-5 Z M1271.5 257.7 L1265.3 302.3 L1277.7 302.3 Z M1271.5 289.5 L1259.6 342.9 L1283.3 342.9 Z M1271.5 321.2 L1252.9 383.4 L1290.1 383.4 Z M1269.0 363.5 h5 V392.0 h-5 Z M1302.2 298.9 L1294.1 330.9 L1310.4 330.9 Z M1302.2 320.8 L1288.5 358.8 L1316.0 358.8 Z M1302.2 342.6 L1282.9 386.7 L1321.5 386.7 Z M1299.7 371.8 h5 V392.0 h-5 Z M1327.9 255.5 L1319.1 300.7 L1336.8 300.7 Z M1327.9 287.8 L1312.0 342.0 L1343.9 342.0 Z M1327.9 320.1 L1301.3 383.2 L1354.6 383.2 Z M1325.4 363.1 h5 V392.0 h-5 Z M1357.9 321.2 L1351.3 346.3 L1364.4 346.3 Z M1357.9 337.7 L1346.1 367.4 L1369.6 367.4 Z M1357.9 354.2 L1340.5 388.5 L1375.2 388.5 Z M1355.4 376.2 h5 V392.0 h-5 Z M1387.1 277.8 L1378.2 316.2 L1396.0 316.2 Z M1387.1 304.7 L1371.9 350.6 L1402.4 350.6 Z M1387.1 331.7 L1363.6 385.0 L1410.7 385.0 Z M1384.6 367.6 h5 V392.0 h-5 Z M1419.5 268.3 L1412.4 309.6 L1426.6 309.6 Z M1419.5 297.5 L1405.2 346.9 L1433.9 346.9 Z M1419.5 326.7 L1398.3 384.3 L1440.8 384.3 Z M1417.0 365.7 h5 V392.0 h-5 Z M1446.0 327.1 L1436.0 350.4 L1456.1 350.4 Z M1446.0 342.2 L1428.2 369.7 L1463.8 369.7 Z M1446.0 357.3 L1420.5 389.0 L1471.5 389.0 Z M1443.5 377.4 h5 V392.0 h-5 Z M1501.9 286.8 L1493.7 322.5 L1510.1 322.5 Z M1501.9 311.6 L1487.5 354.1 L1516.4 354.1 Z M1501.9 336.3 L1479.4 385.7 L1524.5 385.7 Z M1499.4 369.4 h5 V392.0 h-5 Z M1533.6 302.5 L1522.4 333.3 L1544.9 333.3 Z M1533.6 323.5 L1512.6 360.2 L1554.6 360.2 Z M1533.6 344.5 L1505.0 387.0 L1562.3 387.0 Z M1531.1 372.5 h5 V392.0 h-5 Z M1571.1 277.8 L1565.2 316.2 L1577.0 316.2 Z M1571.1 304.7 L1558.4 350.6 L1583.8 350.6 Z M1571.1 331.6 L1554.0 385.0 L1588.2 385.0 Z M1568.6 367.6 h5 V392.0 h-5 Z M1590.6 266.5 L1578.7 308.4 L1602.5 308.4 Z M1590.6 296.2 L1570.6 346.3 L1610.7 346.3 Z M1590.6 325.8 L1563.3 384.1 L1617.9 384.1 Z M1588.1 365.3 h5 V392.0 h-5 Z M0 386 L1600 382 L1600 900 L0 900 Z"/></svg>
